<?xml version="1.0" encoding="UTF-8"?>
<!-- Wojewodztwa Polski. Generated by tools/build_poland_svg.py -->
<!-- Source: andilabs/polska-wojewodztwa-geojson (dane administracyjne PL = public domain) -->
<svg xmlns="http://www.w3.org/2000/svg" viewBox="0 0 1000 1000" preserveAspectRatio="xMidYMid meet">
  <g class="poland-voivodeships" fill="#e5e5e5" stroke="#222" stroke-width="0.8" stroke-linejoin="round" stroke-linecap="round">
    <path id="woj-dolnoslaskie" data-woj="dolnoslaskie" data-cx="219.5" data-cy="668.8" d="M209.7,556.1 L217.4,556.0 L224.6,550.8 L229.5,542.2 L238.4,540.5 L253.0,547.6 L257.0,561.9 L269.8,569.8 L274.5,576.3 L282.4,579.6 L306.0,575.7 L309.3,567.4 L330.4,567.7 L345.4,575.9 L344.0,583.4 L339.5,587.9 L341.7,601.3 L357.4,602.5 L361.2,605.8 L357.8,612.1 L360.8,636.1 L355.9,639.0 L349.0,638.9 L344.5,642.4 L338.7,657.3 L336.7,668.0 L330.4,672.4 L322.5,689.2 L313.1,700.9 L305.2,724.5 L294.3,727.0 L285.9,747.1 L280.5,745.3 L277.2,750.3 L282.2,754.2 L284.7,765.1 L291.7,768.3 L292.2,780.0 L287.3,776.1 L286.7,778.9 L280.5,779.1 L278.7,783.4 L275.2,781.4 L262.3,798.6 L255.4,796.9 L248.1,788.3 L247.7,778.7 L244.2,776.8 L236.7,764.7 L229.7,762.4 L227.3,754.9 L220.5,756.6 L217.5,750.6 L214.0,750.8 L212.5,747.4 L213.0,744.6 L216.5,745.1 L215.0,743.1 L223.7,737.8 L222.9,735.7 L228.4,736.8 L231.7,733.2 L232.7,725.5 L236.8,725.3 L236.0,721.8 L228.0,714.6 L227.9,712.5 L216.0,710.4 L214.9,715.3 L210.9,717.0 L208.6,712.9 L202.3,711.9 L199.7,714.8 L199.2,719.0 L193.1,720.1 L192.4,708.3 L186.8,707.2 L179.4,709.8 L179.1,704.9 L175.2,697.5 L162.8,699.7 L162.0,697.0 L155.6,693.9 L142.3,692.0 L139.2,688.0 L132.7,694.0 L131.1,690.6 L131.3,683.6 L125.6,680.5 L121.5,672.4 L124.6,665.9 L118.6,660.0 L113.2,662.5 L112.1,656.3 L108.7,657.9 L109.6,660.7 L104.7,659.6 L105.2,656.8 L99.0,658.0 L98.0,654.5 L93.4,658.4 L92.9,661.2 L96.4,660.9 L97.2,663.0 L96.9,668.6 L93.6,671.0 L95.8,672.9 L95.6,679.2 L77.9,679.0 L85.4,668.7 L87.4,660.2 L92.1,651.7 L93.7,641.4 L95.3,640.5 L96.5,626.3 L99.2,621.5 L97.8,620.5 L99.6,617.0 L98.8,613.7 L92.1,603.2 L93.9,601.2 L91.5,597.8 L92.2,596.5 L109.8,587.7 L118.6,594.7 L125.6,583.0 L134.0,578.0 L148.7,586.5 L155.6,584.5 L165.5,571.7 L176.1,550.9 L182.1,548.5 L186.7,539.0 L204.7,542.5 L206.5,554.1 L209.7,556.1 Z"/>
    <path id="woj-kujawsko-pomorskie" data-woj="kujawsko-pomorskie" data-cx="439.5" data-cy="343.1" d="M413.7,228.3 L419.4,235.0 L438.5,239.0 L444.9,243.6 L455.1,238.7 L464.6,240.2 L473.0,249.5 L481.0,254.2 L499.0,251.1 L511.7,279.7 L514.8,283.3 L524.9,285.3 L553.9,300.7 L559.3,318.1 L559.5,326.8 L549.8,333.0 L551.2,345.5 L549.3,353.9 L544.0,350.9 L538.6,358.3 L531.2,358.4 L533.3,369.3 L529.2,374.7 L529.5,377.6 L536.1,392.4 L535.4,395.2 L531.4,395.1 L529.8,397.7 L520.8,423.3 L521.2,426.9 L524.2,430.5 L516.0,444.5 L515.3,449.2 L511.6,449.5 L506.2,454.1 L493.8,454.2 L491.2,458.1 L481.9,450.4 L463.8,456.1 L461.6,450.5 L440.5,431.9 L430.6,435.3 L426.3,425.5 L422.8,424.7 L414.9,433.2 L404.2,430.4 L397.4,422.8 L390.9,422.2 L376.5,410.0 L357.7,406.0 L351.1,395.4 L347.9,398.3 L341.6,397.9 L333.4,386.1 L337.3,382.0 L339.8,382.5 L343.0,377.7 L343.3,365.2 L340.3,359.4 L332.2,351.4 L323.4,349.1 L329.9,331.3 L324.8,316.9 L334.0,310.0 L334.4,306.2 L330.1,298.7 L320.0,290.5 L319.5,287.0 L327.6,277.1 L329.8,271.2 L332.6,270.0 L334.2,261.5 L340.4,249.7 L362.3,252.4 L365.6,241.6 L374.9,237.8 L380.8,228.1 L391.2,230.8 L413.7,228.3 Z"/>
    <path id="woj-lodzkie" data-woj="lodzkie" data-cx="522.1" data-cy="569.5" d="M519.9,453.3 L523.5,456.2 L539.7,460.0 L549.1,468.6 L576.1,459.9 L581.5,467.9 L591.0,472.3 L592.3,483.7 L595.0,487.4 L597.8,486.1 L608.9,492.9 L607.7,501.3 L603.6,503.3 L608.8,509.6 L611.0,514.8 L609.6,515.7 L610.0,518.2 L630.1,520.3 L643.8,533.9 L644.9,538.3 L642.7,540.5 L642.5,545.5 L649.3,554.0 L649.8,560.4 L648.7,563.1 L643.4,562.8 L629.7,557.8 L625.7,560.6 L624.9,566.1 L628.9,576.0 L629.6,586.6 L635.0,589.6 L635.1,596.2 L626.6,606.7 L626.4,614.3 L623.8,615.3 L620.0,626.0 L611.8,627.8 L601.2,636.8 L593.0,634.2 L586.6,635.0 L581.5,647.2 L583.1,652.8 L589.8,658.0 L590.0,665.3 L588.3,670.7 L576.3,661.6 L571.1,660.6 L569.2,669.4 L569.9,678.2 L559.8,689.8 L551.9,684.8 L536.7,684.4 L527.5,670.0 L520.0,663.2 L514.5,662.7 L510.1,665.8 L498.8,665.0 L479.9,653.4 L473.7,657.2 L454.7,658.1 L452.8,660.2 L443.8,652.9 L442.7,648.2 L440.5,646.6 L437.8,650.2 L429.2,650.3 L405.7,642.7 L403.4,638.3 L402.1,626.7 L394.9,620.4 L394.4,610.3 L402.8,607.3 L409.3,596.4 L415.6,599.6 L420.3,598.7 L424.7,587.1 L423.4,561.0 L430.2,541.2 L437.0,535.5 L453.4,537.1 L459.7,524.2 L456.4,511.2 L458.4,501.0 L470.7,499.8 L474.8,497.2 L478.2,478.7 L484.6,477.3 L494.4,468.9 L490.1,463.3 L491.6,455.7 L509.4,453.1 L511.6,449.5 L515.3,449.2 L519.9,453.3 Z"/>
    <path id="woj-lubelskie" data-woj="lubelskie" data-cx="867.5" data-cy="609.6" d="M896.8,455.2 L896.1,457.0 L898.8,458.2 L898.7,466.6 L914.8,469.2 L919.9,474.9 L927.1,473.4 L928.0,474.7 L926.7,474.3 L926.0,477.8 L928.7,478.5 L931.9,484.5 L936.2,482.4 L941.4,489.3 L940.2,490.3 L942.1,494.3 L941.5,497.8 L944.7,501.3 L942.3,503.8 L942.9,506.0 L938.8,508.3 L940.7,511.2 L937.6,514.3 L939.9,518.1 L938.3,519.6 L939.3,521.3 L937.1,520.6 L938.2,524.1 L936.3,526.6 L938.6,528.3 L940.6,534.9 L929.8,544.9 L932.4,545.6 L933.1,547.3 L931.8,548.2 L933.7,549.5 L931.8,551.7 L932.8,554.7 L930.7,556.2 L931.7,559.0 L930.6,564.6 L934.5,571.3 L932.8,574.8 L937.9,575.9 L939.3,578.4 L938.0,581.2 L943.5,584.3 L941.1,589.2 L944.6,590.1 L946.4,595.8 L944.2,597.8 L944.7,601.4 L941.8,603.3 L940.0,611.0 L941.5,615.4 L948.0,617.8 L950.4,626.4 L962.5,636.1 L962.7,638.7 L960.6,639.8 L961.3,644.2 L962.5,646.7 L966.4,647.1 L969.0,656.2 L967.5,658.2 L971.0,659.1 L974.6,669.1 L980.5,675.8 L990.0,679.2 L989.9,681.3 L985.5,684.5 L974.5,683.8 L971.3,689.9 L972.5,694.2 L977.3,695.2 L976.9,702.1 L982.4,702.4 L980.1,706.5 L984.0,711.6 L983.7,715.7 L985.8,715.9 L980.8,743.3 L977.9,746.6 L969.4,750.3 L952.2,750.0 L947.2,754.5 L944.7,762.0 L941.9,763.4 L932.1,758.4 L927.2,750.0 L914.8,747.9 L907.9,748.7 L894.9,762.6 L888.1,765.1 L863.2,764.7 L848.7,760.4 L849.4,757.8 L854.3,757.9 L849.7,754.9 L836.3,757.7 L832.5,754.2 L830.5,748.7 L834.3,742.4 L841.8,741.6 L844.5,739.0 L841.0,734.3 L840.3,726.7 L826.8,718.7 L800.0,711.5 L799.1,709.2 L805.2,696.7 L794.7,690.2 L782.6,695.6 L778.0,695.0 L770.7,689.3 L766.7,679.9 L765.1,668.4 L765.7,653.9 L760.6,631.6 L765.3,605.8 L760.8,599.3 L762.2,594.8 L765.8,593.1 L766.0,582.2 L764.1,575.1 L748.8,570.7 L746.0,568.3 L744.9,562.5 L748.2,558.7 L761.9,561.2 L770.1,555.8 L770.5,553.6 L765.1,544.6 L774.4,537.0 L768.6,527.9 L768.7,523.0 L763.7,509.4 L774.1,502.1 L798.5,502.1 L806.6,499.1 L812.2,500.5 L824.7,491.5 L840.6,492.4 L843.2,490.1 L844.1,484.3 L848.5,480.7 L857.7,485.8 L866.7,487.4 L886.2,454.1 L896.8,455.2 Z"/>
    <path id="woj-lubuskie" data-woj="lubuskie" data-cx="139.8" data-cy="460.5" d="M195.9,324.5 L198.9,332.0 L198.8,338.1 L195.3,346.7 L195.4,361.2 L185.9,372.8 L189.6,376.7 L191.3,383.6 L189.8,386.6 L176.7,390.7 L176.7,408.2 L181.6,422.5 L182.2,430.0 L182.1,434.4 L177.1,434.7 L184.2,448.4 L184.7,452.6 L179.9,467.9 L178.7,484.1 L185.3,493.4 L189.2,494.5 L192.4,502.8 L198.1,508.7 L204.0,508.0 L203.4,523.2 L212.5,528.2 L220.5,523.5 L226.4,529.9 L229.5,542.2 L223.7,551.7 L212.0,557.4 L206.5,554.1 L204.7,542.5 L186.7,539.0 L182.1,548.5 L176.1,550.9 L165.5,571.7 L155.6,584.5 L148.7,586.5 L134.0,578.0 L125.6,583.0 L118.6,594.7 L109.8,587.7 L92.2,596.5 L91.5,592.2 L93.0,590.6 L90.5,585.9 L69.7,577.3 L67.3,571.6 L72.6,564.6 L71.8,556.0 L63.1,545.9 L60.9,534.9 L57.1,533.5 L55.4,530.0 L57.5,525.2 L65.7,518.0 L68.3,510.2 L66.7,506.2 L68.3,503.5 L67.6,501.9 L70.9,497.4 L72.0,492.1 L64.4,484.0 L64.2,479.5 L66.7,475.5 L64.8,471.6 L67.8,465.0 L65.4,461.8 L54.1,456.6 L55.0,453.7 L50.0,439.5 L51.5,433.3 L54.4,432.0 L59.9,423.6 L56.8,417.7 L60.3,411.6 L57.3,406.9 L60.2,396.3 L73.1,393.5 L77.2,390.1 L91.6,363.1 L102.8,362.9 L119.4,367.4 L129.6,352.8 L124.9,349.7 L133.4,349.4 L143.4,344.1 L167.5,343.6 L186.4,324.5 L195.9,324.5 Z"/>
    <path id="woj-malopolskie" data-woj="malopolskie" data-cx="614.7" data-cy="837.8" d="M599.7,746.7 L604.8,747.0 L611.6,751.6 L620.1,772.4 L630.3,785.6 L650.9,786.8 L654.4,785.3 L665.1,771.5 L709.6,763.3 L702.3,778.1 L705.2,805.2 L703.9,820.8 L707.1,827.4 L711.1,827.5 L716.0,833.1 L704.0,844.1 L723.2,857.9 L727.6,872.7 L726.7,880.3 L727.8,888.3 L732.0,900.7 L729.9,899.1 L728.3,901.6 L724.1,901.4 L721.3,898.5 L709.1,894.6 L702.0,903.1 L693.8,898.2 L688.9,899.7 L686.7,902.2 L691.8,907.3 L686.3,908.7 L681.2,914.0 L680.6,917.1 L674.9,918.9 L672.1,915.1 L669.2,915.6 L670.2,913.8 L668.6,911.7 L665.0,913.4 L662.0,911.5 L663.1,909.6 L658.2,907.6 L657.9,903.6 L654.9,900.8 L648.0,903.3 L644.4,900.5 L640.3,906.8 L626.4,900.6 L626.5,903.8 L624.9,902.5 L621.9,905.0 L620.7,902.2 L616.0,902.5 L614.7,912.2 L603.5,912.2 L600.3,917.6 L598.5,915.4 L594.1,925.9 L593.1,936.6 L586.2,933.5 L582.6,928.9 L577.7,928.2 L574.6,929.1 L570.8,935.1 L561.4,933.8 L562.0,927.7 L566.7,922.9 L564.7,920.2 L565.3,910.1 L564.0,903.3 L560.0,902.7 L556.6,906.1 L555.3,904.0 L548.5,903.4 L549.9,900.7 L549.2,896.6 L546.5,897.3 L542.4,893.3 L538.3,878.4 L532.2,873.6 L533.2,872.3 L528.3,871.9 L525.9,867.7 L529.0,856.7 L516.9,853.2 L512.8,843.2 L504.9,839.4 L503.1,827.9 L500.2,828.6 L497.4,825.2 L498.2,820.5 L501.8,813.4 L526.0,786.5 L516.3,774.9 L520.0,772.3 L526.4,773.8 L534.9,757.9 L543.1,761.1 L548.2,759.7 L556.4,752.8 L568.7,753.3 L581.0,745.0 L579.9,739.1 L591.5,739.7 L599.7,746.7 Z"/>
    <path id="woj-mazowieckie" data-woj="mazowieckie" data-cx="700.8" data-cy="463.8" d="M736.7,281.0 L738.6,292.0 L738.4,301.2 L747.3,323.4 L751.8,329.1 L763.8,331.8 L764.6,333.6 L762.9,336.9 L764.8,344.6 L771.6,348.8 L775.9,362.6 L783.6,368.2 L792.2,366.8 L798.2,360.6 L801.5,365.7 L799.8,374.1 L803.6,378.7 L808.4,380.5 L814.4,374.2 L817.7,376.9 L819.7,406.6 L833.1,437.7 L838.3,441.9 L843.6,442.7 L868.5,440.9 L879.5,451.7 L886.2,454.1 L866.7,487.4 L857.7,485.8 L848.5,480.7 L844.1,484.3 L843.2,490.1 L840.6,492.4 L824.7,491.5 L812.2,500.5 L806.6,499.1 L798.5,502.1 L774.1,502.1 L763.7,509.4 L768.7,523.0 L768.6,527.9 L774.4,537.0 L765.1,544.6 L770.5,553.6 L770.1,555.8 L761.9,561.2 L748.2,558.7 L744.9,562.5 L746.4,568.9 L762.4,574.1 L765.6,580.3 L765.8,593.1 L762.2,594.8 L760.8,599.3 L765.3,605.8 L760.6,631.6 L765.4,652.4 L741.8,654.2 L730.8,658.1 L717.4,652.7 L702.3,650.4 L695.9,639.1 L695.5,632.8 L690.4,633.1 L688.0,638.4 L682.4,642.4 L661.8,643.2 L657.1,641.4 L649.7,632.5 L634.9,624.4 L631.2,614.7 L626.4,614.3 L625.9,611.8 L627.9,604.5 L634.7,597.5 L635.3,590.9 L629.6,586.6 L628.9,576.0 L624.8,563.9 L625.7,560.6 L629.7,557.8 L643.4,562.8 L649.0,562.5 L649.8,555.1 L642.5,545.5 L642.7,540.5 L644.9,538.3 L642.4,531.7 L629.1,519.9 L610.0,518.2 L609.6,515.7 L611.0,514.8 L608.8,509.6 L603.6,503.3 L607.7,501.3 L608.9,492.9 L597.8,486.1 L595.0,487.4 L592.3,483.7 L591.0,472.3 L581.5,467.9 L576.1,459.9 L549.1,468.6 L539.7,460.0 L523.5,456.2 L515.3,449.2 L516.0,444.5 L524.2,430.5 L521.2,426.9 L520.8,423.3 L529.8,397.7 L531.4,395.1 L535.4,395.2 L536.1,392.4 L529.5,377.6 L529.2,374.7 L533.3,369.3 L531.2,358.4 L538.6,358.3 L544.0,350.9 L549.3,353.9 L551.2,345.5 L549.8,333.0 L565.1,325.2 L568.7,317.8 L573.8,317.7 L576.5,321.2 L589.8,325.0 L614.0,325.6 L620.2,321.4 L622.5,313.1 L631.4,312.6 L646.2,303.8 L652.3,297.2 L662.7,296.9 L672.0,291.8 L689.6,289.9 L698.2,280.3 L715.1,278.7 L719.4,270.7 L733.0,269.6 L736.7,281.0 Z"/>
    <path id="woj-opolskie" data-woj="opolskie" data-cx="369.3" data-cy="726.5" d="M368.5,638.9 L370.2,647.2 L380.2,649.3 L403.4,638.3 L406.4,643.7 L427.5,650.0 L437.8,650.2 L440.5,646.6 L442.7,648.2 L443.8,652.9 L452.8,660.2 L450.5,669.5 L447.7,673.4 L449.4,687.5 L440.5,693.1 L433.9,715.5 L439.0,724.5 L445.8,729.9 L446.2,735.0 L428.3,736.1 L429.3,743.9 L423.5,748.4 L425.4,779.5 L407.9,790.7 L391.7,794.6 L389.8,798.5 L390.7,804.5 L389.4,808.0 L393.5,807.2 L393.6,812.7 L387.5,810.8 L381.5,816.5 L377.4,817.3 L371.9,815.4 L367.0,810.1 L363.2,798.5 L359.1,795.9 L355.0,796.8 L354.2,794.0 L348.6,790.1 L348.6,788.0 L360.1,785.6 L360.7,782.1 L364.8,782.0 L365.3,777.1 L362.5,775.2 L362.4,771.7 L364.3,766.8 L357.3,763.6 L358.2,767.7 L351.5,772.8 L337.1,771.9 L332.4,774.9 L332.3,772.1 L330.2,771.5 L331.6,770.8 L330.8,769.4 L326.7,770.3 L326.9,773.7 L325.5,773.8 L324.0,769.7 L325.2,765.5 L323.1,764.2 L325.1,763.4 L317.6,764.4 L309.1,757.2 L309.7,754.4 L304.2,755.3 L300.6,751.3 L285.9,747.1 L294.3,727.0 L305.2,724.5 L313.1,700.9 L322.5,689.2 L330.4,672.4 L336.7,668.0 L338.7,657.3 L344.5,642.4 L349.0,638.9 L355.9,639.0 L363.6,635.7 L368.5,638.9 Z"/>
    <path id="woj-podkarpackie" data-woj="podkarpackie" data-cx="822.0" data-cy="826.3" d="M780.2,695.5 L791.1,690.5 L799.1,692.0 L805.6,697.6 L799.1,709.2 L800.0,711.5 L826.8,718.7 L840.3,726.7 L841.0,734.3 L844.5,739.0 L841.8,741.6 L834.3,742.4 L830.5,748.7 L832.5,754.2 L836.3,757.7 L849.7,754.9 L854.3,757.9 L849.4,757.8 L848.7,760.4 L863.2,764.7 L888.1,765.1 L894.9,762.6 L907.9,748.7 L914.8,747.9 L927.2,750.0 L932.1,758.4 L941.9,763.4 L938.4,765.8 L936.0,771.2 L921.8,781.5 L917.4,788.8 L906.0,797.9 L904.4,802.6 L899.6,805.1 L898.7,809.2 L868.6,846.2 L867.0,851.6 L857.2,860.0 L854.2,868.8 L845.7,878.6 L844.8,884.7 L848.0,889.6 L847.7,897.1 L859.1,916.5 L856.8,923.2 L851.2,929.0 L853.1,931.8 L851.1,933.1 L849.5,938.4 L853.6,935.9 L852.2,938.5 L853.5,940.6 L857.5,940.1 L857.4,942.8 L861.2,947.0 L863.9,946.4 L864.5,949.1 L867.1,949.2 L865.0,951.8 L866.1,960.0 L867.4,960.7 L866.6,962.7 L856.2,955.5 L845.5,957.1 L838.4,949.4 L827.7,950.4 L820.4,948.1 L816.6,941.9 L810.6,943.7 L802.6,941.4 L803.4,937.4 L802.1,936.0 L798.7,937.9 L794.2,933.7 L784.9,931.4 L783.6,930.0 L783.1,921.2 L778.6,917.0 L777.3,912.2 L770.0,910.7 L764.8,905.1 L760.7,906.3 L758.6,910.4 L752.8,901.4 L746.7,901.2 L744.1,896.4 L732.0,900.7 L727.8,888.3 L726.7,880.3 L727.6,872.7 L723.2,857.9 L719.7,853.9 L704.2,845.1 L706.8,840.5 L716.0,833.1 L711.1,827.5 L707.1,827.4 L703.9,820.8 L705.2,805.2 L702.2,783.8 L702.3,778.1 L713.6,754.7 L718.5,750.2 L726.0,748.9 L730.5,742.9 L745.8,733.1 L764.2,710.9 L769.7,689.9 L780.2,695.5 Z"/>
    <path id="woj-podlaskie" data-woj="podlaskie" data-cx="851.0" data-cy="281.0" d="M866.0,106.9 L868.1,111.5 L876.4,112.6 L877.8,114.2 L877.6,118.7 L882.8,119.7 L881.8,125.7 L885.5,128.1 L893.1,126.2 L894.4,129.3 L898.9,131.0 L901.6,136.4 L912.8,139.2 L921.2,150.9 L925.6,152.6 L927.9,166.3 L927.5,174.5 L925.0,179.6 L927.7,185.0 L929.1,200.8 L932.7,202.2 L932.3,213.1 L937.3,220.9 L944.1,257.6 L956.3,297.8 L958.1,302.4 L962.1,304.1 L962.4,310.7 L967.3,315.4 L967.0,319.8 L964.7,321.9 L962.9,329.1 L967.5,335.2 L966.0,337.4 L969.1,348.7 L966.2,352.8 L966.9,370.4 L968.3,374.0 L967.2,395.7 L959.1,398.2 L948.9,406.0 L947.6,404.3 L935.5,407.8 L921.3,417.9 L896.8,455.2 L883.0,453.8 L868.5,440.9 L843.6,442.7 L838.3,441.9 L833.1,437.7 L819.7,406.6 L817.7,376.9 L814.4,374.2 L808.4,380.5 L803.6,378.7 L799.8,374.1 L801.5,365.7 L798.2,360.6 L792.2,366.8 L783.6,368.2 L775.9,362.6 L771.6,348.8 L764.8,344.6 L762.9,336.9 L764.6,333.6 L763.8,331.8 L751.8,329.1 L747.3,323.4 L738.4,301.2 L737.4,283.6 L732.9,271.1 L738.9,266.1 L757.8,267.1 L768.5,260.4 L773.5,260.4 L791.1,248.7 L806.9,232.4 L831.6,217.5 L841.7,193.3 L828.7,173.3 L824.8,170.3 L822.1,157.6 L814.0,149.3 L814.1,141.2 L825.6,133.6 L840.5,133.0 L850.8,127.5 L859.0,117.4 L859.8,111.9 L857.6,110.3 L866.0,106.9 Z"/>
    <path id="woj-pomorskie" data-woj="pomorskie" data-cx="410.2" data-cy="154.2" d="M466.6,116.6 L467.2,117.1 L466.0,116.7 L466.6,116.6 Z M453.3,108.6 L459.0,109.6 L456.2,111.4 L458.0,110.8 L457.3,111.9 L459.7,115.1 L464.8,115.9 L465.5,119.3 L464.0,118.6 L457.3,117.9 L455.2,118.6 L453.8,117.2 L452.1,116.6 L451.8,114.5 L453.2,114.3 L455.4,111.0 L453.3,108.6 Z M417.7,37.3 L421.7,37.9 L455.8,60.3 L469.0,73.0 L469.4,76.2 L467.8,78.2 L457.7,62.8 L429.9,45.1 L427.4,52.3 L427.3,55.5 L434.8,61.3 L434.4,71.4 L438.9,71.4 L438.6,74.8 L442.4,81.6 L443.5,87.1 L442.1,88.0 L439.9,86.9 L438.3,86.4 L437.9,86.5 L443.4,89.1 L442.4,91.6 L444.4,96.4 L443.7,101.3 L448.0,107.3 L455.1,110.6 L453.5,113.4 L451.9,114.0 L451.5,115.0 L451.9,116.6 L454.9,118.6 L466.1,119.8 L465.5,117.8 L467.6,117.0 L478.2,120.0 L481.2,117.5 L486.2,120.3 L512.5,118.0 L533.5,111.3 L550.3,101.3 L527.6,116.0 L508.4,121.7 L512.4,126.5 L510.7,128.8 L511.8,131.4 L509.6,137.3 L515.4,151.3 L512.4,159.5 L506.5,165.6 L507.8,172.8 L512.9,182.4 L524.5,186.5 L523.1,196.5 L540.6,197.2 L540.2,203.5 L534.6,212.5 L533.8,219.1 L521.3,217.6 L513.6,223.5 L497.8,252.4 L484.5,254.7 L473.0,249.5 L464.6,240.2 L455.1,238.7 L444.9,243.6 L438.5,239.0 L419.4,235.0 L412.2,227.9 L391.2,230.8 L380.8,228.1 L374.9,237.8 L365.6,241.6 L362.3,252.4 L340.4,249.7 L334.2,261.5 L332.6,270.0 L329.8,271.2 L320.9,263.3 L299.3,262.0 L295.0,259.3 L285.9,245.8 L284.2,227.9 L291.2,219.3 L286.0,208.8 L288.4,205.4 L296.6,206.5 L285.2,188.3 L279.6,184.2 L278.8,165.5 L272.5,146.2 L287.2,142.3 L287.1,135.2 L284.2,129.1 L288.6,124.2 L288.7,115.8 L287.1,109.8 L270.2,81.4 L281.4,78.1 L295.7,65.7 L316.8,54.5 L379.4,39.2 L417.7,37.3 Z"/>
    <path id="woj-slaskie" data-woj="slaskie" data-cx="485.4" data-cy="779.1" d="M484.2,657.4 L503.0,665.7 L520.0,663.2 L527.5,670.0 L536.7,684.4 L551.9,684.8 L556.7,688.9 L569.7,692.2 L569.6,697.0 L561.5,698.4 L558.9,705.0 L559.5,707.3 L569.9,710.4 L579.7,724.7 L574.7,725.1 L567.1,735.2 L579.9,739.1 L581.0,745.0 L568.7,753.3 L556.4,752.8 L546.2,760.5 L540.9,761.1 L534.9,757.9 L526.4,773.8 L520.0,772.3 L516.3,774.9 L526.0,786.5 L501.8,813.4 L497.4,825.2 L500.2,828.6 L503.1,827.9 L504.9,839.4 L512.8,843.2 L516.9,853.2 L529.0,856.7 L525.9,867.7 L528.3,871.9 L533.2,872.3 L526.8,874.4 L526.8,876.4 L522.8,878.5 L522.8,882.6 L512.1,883.3 L508.1,891.5 L508.8,895.6 L505.5,897.0 L505.5,901.7 L498.2,903.2 L492.1,901.2 L490.1,904.7 L484.1,903.4 L485.3,898.6 L483.3,895.9 L483.8,887.8 L481.8,885.8 L471.7,886.0 L473.0,881.2 L470.2,877.1 L467.9,862.2 L460.5,861.7 L457.7,857.0 L452.3,857.1 L453.0,859.8 L451.7,859.8 L450.2,850.3 L444.5,838.8 L447.8,834.6 L444.4,833.3 L444.9,825.1 L441.5,824.5 L440.9,827.9 L436.8,828.0 L423.1,821.5 L421.1,821.5 L422.5,824.3 L419.1,825.7 L416.4,823.7 L414.9,818.3 L410.1,818.4 L409.3,812.9 L405.2,813.1 L404.6,815.8 L399.8,813.9 L397.6,807.1 L390.7,803.9 L389.8,798.5 L394.0,793.1 L407.9,790.7 L424.3,780.7 L425.4,769.3 L423.5,748.4 L429.3,743.9 L428.3,736.1 L446.2,735.0 L445.8,729.9 L439.0,724.5 L433.9,715.5 L440.5,693.1 L449.4,687.5 L447.7,673.4 L450.5,669.5 L452.8,660.2 L454.7,658.1 L473.7,657.2 L478.2,653.5 L484.2,657.4 Z"/>
    <path id="woj-swietokrzyskie" data-woj="swietokrzyskie" data-cx="665.1" data-cy="700.4" d="M653.2,636.7 L657.1,641.4 L670.3,643.8 L682.4,642.4 L688.0,638.4 L690.4,633.1 L695.5,632.8 L695.9,639.1 L702.3,650.4 L717.4,652.7 L730.8,658.1 L741.8,654.2 L765.4,652.4 L765.1,668.4 L766.7,679.9 L770.7,689.3 L769.1,691.4 L766.7,705.0 L762.0,714.1 L745.8,733.1 L730.5,742.9 L726.0,748.9 L716.4,751.7 L709.6,763.3 L665.1,771.5 L654.4,785.3 L650.9,786.8 L628.7,784.9 L620.1,772.4 L615.2,758.3 L608.6,749.0 L597.2,745.6 L591.5,739.7 L567.1,735.2 L574.7,725.1 L579.7,724.7 L569.9,710.4 L559.5,707.3 L559.7,700.6 L569.6,697.0 L569.7,694.3 L568.4,691.5 L559.8,689.8 L569.9,678.2 L569.2,669.4 L571.1,660.6 L576.3,661.6 L588.3,670.7 L590.0,665.3 L589.8,658.0 L583.1,652.8 L581.5,647.2 L586.6,635.0 L602.6,636.1 L611.8,627.8 L620.0,626.0 L623.8,615.3 L628.3,614.1 L631.2,614.7 L634.9,624.4 L649.7,632.5 L653.2,636.7 Z"/>
    <path id="woj-warminsko-mazurskie" data-woj="warminsko-mazurskie" data-cx="679.3" data-cy="215.9" d="M564.9,104.9 L654.9,117.7 L727.9,124.1 L830.1,119.4 L855.1,117.6 L859.0,113.4 L859.7,115.3 L854.2,125.0 L843.2,132.4 L825.6,133.6 L814.1,141.2 L814.0,149.3 L822.1,157.6 L824.8,170.3 L836.9,184.6 L841.2,191.1 L841.5,194.6 L831.6,217.5 L806.9,232.4 L791.1,248.7 L773.5,260.4 L768.5,260.4 L757.8,267.1 L738.9,266.1 L733.0,269.6 L719.4,270.7 L715.1,278.7 L698.2,280.3 L689.6,289.9 L672.0,291.8 L662.7,296.9 L652.3,297.2 L646.2,303.8 L631.4,312.6 L622.5,313.1 L620.2,321.4 L614.0,325.6 L589.8,325.0 L576.5,321.2 L570.7,317.0 L567.1,319.2 L565.1,325.2 L559.5,326.8 L559.3,318.1 L553.0,299.1 L536.6,292.9 L524.9,285.3 L514.8,283.3 L511.7,279.7 L499.0,251.1 L513.6,223.5 L522.6,217.1 L533.8,219.1 L534.6,212.5 L540.2,203.5 L540.6,197.2 L522.4,196.0 L524.5,186.5 L512.9,182.4 L509.7,178.5 L506.5,165.6 L512.4,159.5 L515.4,151.3 L509.5,135.1 L511.9,131.5 L523.4,133.5 L525.6,131.1 L521.8,139.9 L522.8,141.1 L525.3,133.7 L535.2,124.0 L549.6,120.0 L559.2,108.4 L559.3,105.6 L564.9,104.9 Z"/>
    <path id="woj-wielkopolskie" data-woj="wielkopolskie" data-cx="335.5" data-cy="446.8" d="M283.3,244.4 L288.5,247.8 L295.0,259.3 L299.3,262.0 L314.3,261.4 L320.9,263.3 L329.5,270.3 L328.2,276.1 L319.3,287.8 L320.0,290.5 L331.4,300.1 L334.4,306.2 L334.0,310.0 L324.8,316.9 L329.9,331.3 L323.4,349.1 L332.2,351.4 L340.3,359.4 L343.3,365.2 L343.0,377.7 L339.8,382.5 L337.3,382.0 L333.4,386.1 L341.6,397.9 L347.9,398.3 L351.1,395.4 L357.7,406.0 L376.5,410.0 L390.9,422.2 L397.4,422.8 L404.2,430.4 L414.9,433.2 L422.8,424.7 L426.3,425.5 L430.6,435.3 L440.5,431.9 L461.6,450.5 L463.8,456.1 L481.9,450.4 L490.3,458.2 L490.1,463.3 L494.4,468.1 L484.6,477.3 L478.2,478.7 L476.3,494.3 L473.9,498.1 L458.4,501.0 L456.4,511.2 L459.7,524.2 L453.4,537.1 L437.0,535.5 L430.2,541.2 L423.4,561.0 L424.7,587.1 L420.3,598.7 L415.6,599.6 L409.3,596.4 L402.8,607.3 L394.4,610.3 L394.9,620.4 L402.1,626.7 L403.4,638.3 L381.0,649.2 L370.2,647.2 L368.5,638.9 L360.8,636.1 L360.1,634.0 L357.8,612.1 L361.2,605.8 L354.3,601.8 L342.6,602.2 L340.2,597.0 L339.8,586.6 L344.0,583.4 L345.4,575.9 L336.7,569.8 L321.2,566.2 L309.3,567.4 L304.5,576.2 L282.4,579.6 L274.5,576.3 L269.8,569.8 L257.0,561.9 L253.0,547.6 L238.4,540.5 L229.5,542.2 L226.4,529.9 L220.5,523.5 L212.5,528.2 L203.4,523.2 L204.0,508.0 L198.1,508.7 L192.4,502.8 L189.2,494.5 L185.3,493.4 L179.0,485.5 L178.6,475.6 L184.7,452.6 L184.2,448.4 L177.1,434.7 L182.1,434.4 L182.2,430.0 L181.6,422.5 L176.7,408.2 L176.7,390.7 L189.8,386.6 L191.3,383.6 L189.6,376.7 L185.9,372.8 L186.3,370.4 L195.0,363.0 L195.8,343.3 L197.7,340.2 L205.2,345.5 L211.4,346.5 L222.3,342.4 L230.1,334.9 L238.3,321.1 L261.4,309.6 L268.2,299.1 L267.4,297.0 L262.5,290.6 L248.4,286.0 L245.2,279.2 L244.9,269.5 L246.5,266.6 L268.3,267.0 L270.3,256.1 L274.1,247.2 L276.0,244.7 L283.3,244.4 Z"/>
    <path id="woj-zachodniopomorskie" data-woj="zachodniopomorskie" data-cx="153.3" data-cy="244.3" d="M56.1,237.6 L56.1,238.1 L55.7,238.1 L55.8,237.7 L56.1,237.6 Z M50.0,231.1 L50.0,232.3 L48.9,231.7 L49.6,231.1 L50.0,231.1 Z M27.8,200.3 L27.6,201.0 L27.1,201.2 L27.4,200.5 L27.8,200.3 Z M38.4,200.3 L38.6,203.2 L35.3,204.8 L35.9,203.6 L36.1,202.5 L35.7,201.6 L38.4,200.3 Z M28.5,200.7 L28.3,200.6 L29.1,200.2 L28.5,200.7 Z M37.6,199.8 L38.5,200.1 L34.8,201.5 L36.0,199.9 L37.6,199.8 Z M28.1,200.7 L28.6,199.8 L29.1,199.5 L29.1,199.9 L28.1,200.7 Z M31.1,199.3 L32.4,201.3 L35.8,202.2 L31.0,205.9 L31.2,209.5 L25.4,201.6 L27.6,201.3 L26.1,202.2 L26.8,202.3 L31.1,199.3 Z M37.4,198.9 L37.6,199.3 L36.4,199.3 L37.2,199.1 L37.4,198.9 Z M35.8,198.8 L35.9,198.9 L36.0,199.5 L35.7,199.2 L35.8,198.8 Z M36.3,198.7 L36.4,199.1 L36.1,199.3 L36.1,198.9 L36.3,198.7 Z M22.9,195.5 L25.0,196.9 L25.2,199.7 L24.3,197.3 L22.9,195.5 Z M19.6,189.3 L25.1,190.5 L22.4,194.2 L23.6,199.8 L24.2,197.8 L25.5,203.0 L30.8,209.6 L24.4,206.5 L19.0,200.0 L18.3,193.8 L16.0,191.7 L19.6,189.3 Z M68.5,181.0 L71.7,182.2 L71.9,185.4 L66.6,186.4 L67.2,181.1 L68.5,181.0 Z M72.3,173.4 L72.8,175.9 L65.7,178.6 L65.7,188.0 L59.8,195.2 L58.0,199.9 L58.2,205.4 L55.8,206.4 L55.3,210.6 L53.6,207.6 L54.9,205.3 L53.9,202.7 L39.2,200.0 L40.4,194.3 L39.4,196.8 L34.4,196.0 L33.0,198.8 L35.8,199.7 L34.3,201.6 L30.7,198.5 L25.7,200.8 L25.5,197.0 L22.8,194.9 L25.8,190.7 L38.0,191.1 L47.1,183.5 L68.8,174.0 L69.2,174.5 L71.1,174.5 L72.3,173.4 Z M270.2,81.6 L287.1,109.8 L288.7,115.8 L288.6,124.2 L284.2,129.1 L287.1,135.2 L287.2,142.3 L272.5,146.2 L278.8,165.5 L279.6,184.2 L285.2,188.3 L296.6,206.5 L288.4,205.4 L286.0,208.8 L291.2,219.3 L284.2,227.9 L285.9,245.8 L276.0,244.7 L270.3,256.1 L267.8,267.4 L246.5,266.6 L244.9,269.5 L245.2,279.2 L248.4,286.0 L262.5,290.6 L268.2,299.1 L260.6,310.5 L242.5,317.6 L233.9,326.9 L227.0,338.8 L212.7,346.4 L205.2,345.5 L197.0,340.9 L198.8,338.1 L198.9,332.0 L195.9,324.5 L186.4,324.5 L167.5,343.6 L143.4,344.1 L133.4,349.4 L124.9,349.7 L129.6,352.8 L119.4,367.4 L102.8,362.9 L91.6,363.1 L77.2,390.1 L73.1,393.5 L60.2,396.3 L57.3,406.9 L43.7,397.2 L32.3,382.3 L25.1,378.5 L19.1,371.6 L10.0,369.0 L13.6,360.1 L11.8,348.2 L31.9,333.1 L35.7,318.7 L33.6,314.0 L34.7,309.1 L37.4,307.7 L41.8,299.3 L39.0,297.0 L37.6,291.7 L38.4,289.1 L34.3,275.2 L34.1,267.5 L32.8,267.3 L32.1,261.0 L29.8,259.7 L27.7,253.1 L28.8,240.9 L25.5,238.2 L25.6,234.2 L24.3,233.1 L25.5,230.3 L24.5,227.5 L28.0,226.2 L24.8,223.2 L27.4,222.9 L25.6,220.3 L30.1,221.7 L37.6,230.7 L48.9,233.6 L53.6,243.6 L56.2,244.3 L55.8,239.7 L58.6,236.2 L50.9,231.3 L50.4,226.7 L53.0,217.0 L58.0,216.3 L57.0,207.1 L58.5,205.5 L61.5,194.8 L66.0,191.6 L67.9,187.3 L72.2,189.7 L72.4,182.4 L74.8,181.9 L72.5,178.8 L76.3,176.2 L76.5,172.6 L75.1,172.3 L73.5,173.8 L72.0,173.3 L70.8,174.3 L69.0,173.9 L123.1,153.1 L143.7,149.9 L179.0,137.3 L204.4,131.5 L220.2,118.3 L236.7,94.9 L244.7,87.4 L270.2,81.6 Z"/>
  </g>
</svg>
